<svg width="1192" height="213" viewBox="0 0 1192 213" fill="none" xmlns="http://www.w3.org/2000/svg">
<path d="M0 129.645V127.904L10.058 126.164V9.91912L0 8.17893V6.43874H45.7814V8.17893L35.5499 9.91912V127.034H64.1633C66.9379 127.034 69.4235 126.28 71.6201 124.772C73.8167 123.148 75.7821 120.596 77.5162 117.115C79.3659 113.519 81.1001 108.878 82.7186 103.194L87.2274 81.2672H90.3489L95.7247 129.645H0Z" fill="white"/>
<path d="M161.437 40.0245C168.373 40.0245 174.327 40.7786 179.298 42.2868C184.385 43.7949 188.547 46.1152 191.784 49.2476C195.021 52.3799 197.391 56.3243 198.894 61.0809C200.397 65.8374 201.148 71.406 201.148 77.7868V123.728C201.148 125.12 201.437 126.222 202.015 127.034C202.709 127.846 203.634 128.252 204.79 128.252C205.946 128.252 207.334 127.904 208.952 127.208C210.686 126.512 212.42 125.584 214.154 124.424V126.164C212.652 127.324 210.86 128.368 208.779 129.297C206.813 130.225 204.675 130.921 202.362 131.385C200.166 131.965 197.969 132.255 195.773 132.255C189.992 132.255 185.368 130.747 181.899 127.73C178.547 124.598 176.87 119.551 176.87 112.591C176.87 110.734 176.87 109.4 176.87 108.588C176.87 107.66 176.87 106.964 176.87 106.5C176.87 105.92 176.87 105.282 176.87 104.586L175.483 103.542C173.286 108.066 170.685 112.127 167.679 115.723C164.789 119.203 161.552 122.22 157.968 124.772C154.384 127.208 150.685 129.065 146.87 130.341C143.055 131.617 139.239 132.255 135.424 132.255C131.147 132.255 127.274 131.501 123.806 129.993C120.337 128.484 117.563 126.28 115.482 123.38C113.401 120.48 112.36 116.941 112.36 112.765C112.36 103.02 117.852 95.5368 128.835 90.3162C139.933 84.9796 155.945 82.3113 176.87 82.3113C176.87 72.4502 176.177 64.6773 174.789 58.9926C173.402 53.308 170.974 49.2476 167.506 46.8113C164.153 44.375 159.298 43.1569 152.939 43.1569C149.124 43.1569 145.714 43.5629 142.708 44.375C139.702 45.0711 137.332 45.8832 135.598 46.8113C133.864 47.7394 132.997 48.6095 132.997 49.4216C132.997 50.0016 133.632 50.6397 134.904 51.3358C136.176 52.0319 138.372 52.96 141.494 54.1201C147.621 56.3243 150.685 59.6307 150.685 64.0392C150.685 67.7516 149.008 70.652 145.656 72.7402C142.303 74.7124 138.199 75.6985 133.343 75.6985C128.603 75.6985 124.557 74.7124 121.204 72.7402C117.967 70.652 116.349 67.6356 116.349 63.6912C116.349 60.7909 117.563 57.9485 119.991 55.1642C122.418 52.3799 125.713 49.8276 129.875 47.5074C134.153 45.1871 139.008 43.3889 144.442 42.1127C149.876 40.7206 155.54 40.0245 161.437 40.0245ZM176.87 84.3995C167.159 84.3995 159.182 85.6757 152.939 88.228C146.696 90.7802 142.072 94.0866 139.066 98.1471C136.06 102.092 134.557 106.384 134.557 111.025C134.557 113.809 135.078 116.129 136.118 117.985C137.159 119.725 138.546 121.06 140.28 121.988C142.014 122.8 144.037 123.206 146.349 123.206C148.893 123.206 151.552 122.684 154.327 121.64C157.217 120.596 160.049 118.971 162.824 116.767C165.598 114.563 168.2 111.779 170.627 108.414C173.171 105.05 175.252 100.989 176.87 96.2328V84.3995Z" fill="white"/>
<path d="M335.834 127.904V129.645H292.307V127.904L301.498 126.164V67.1716C301.498 61.0229 300.458 56.3824 298.377 53.25C296.296 50.1177 293.29 48.5515 289.359 48.5515C286.7 48.5515 283.984 49.5956 281.209 51.6838C278.55 53.656 275.949 56.2663 273.405 59.5147C270.977 62.6471 268.781 65.8954 266.816 69.2598C264.85 72.6242 263.289 75.6985 262.133 78.4828V126.164L271.324 127.904V129.645H228.491V127.904L237.855 126.164V48.2034H227.797V46.2892L262.133 40.0245V68.5637L263.521 69.7819C266.411 63.8652 269.648 58.7026 273.232 54.2941C276.931 49.7696 281.036 46.2892 285.544 43.8529C290.053 41.3007 295.024 40.0245 300.458 40.0245C305.198 40.0245 309.186 40.7786 312.423 42.2868C315.661 43.6789 318.204 45.7672 320.054 48.5515C322.019 51.2198 323.464 54.4681 324.389 58.2966C325.314 62.009 325.776 66.1275 325.776 70.652V126.164L335.834 127.904Z" fill="white"/>
<path d="M378.964 132.255C371.681 132.255 366.479 130.167 363.357 125.99C360.236 121.814 358.675 115.549 358.675 107.196V46.1152H346.883V44.375L358.848 42.6348L380.352 14.0956H382.953V41.0686L400.815 44.375V46.1152H382.953V115.201C382.953 119.261 383.531 122.22 384.687 124.076C385.959 125.816 387.635 126.686 389.716 126.686C391.566 126.686 393.358 126.106 395.092 124.946C396.826 123.67 398.56 122.104 400.294 120.248L400.815 122.684C399.543 123.844 398.04 125.004 396.306 126.164C394.687 127.324 392.953 128.368 391.103 129.297C389.254 130.225 387.288 130.921 385.207 131.385C383.242 131.965 381.161 132.255 378.964 132.255Z" fill="white"/>
<path d="M461.697 40.0245C471.292 40.0245 479.211 41.9387 485.454 45.7672C491.697 49.5956 496.379 54.7002 499.501 61.0809C502.622 67.4616 504.183 74.6544 504.183 82.6593H438.459V80.9191L481.639 78.6569C481.639 70.884 480.946 64.2712 479.558 58.8186C478.171 53.366 475.974 49.2476 472.969 46.4632C470.078 43.5629 466.263 42.1127 461.523 42.1127C456.899 42.1127 452.853 43.6209 449.384 46.6373C446.032 49.6536 443.43 54.2361 441.581 60.3848C439.846 66.4175 438.979 74.1904 438.979 83.7034C438.979 88.924 439.615 93.9706 440.887 98.8431C442.274 103.6 444.24 107.95 446.783 111.895C449.442 115.723 452.679 118.797 456.494 121.118C460.309 123.322 464.76 124.424 469.847 124.424C472.969 124.424 476.09 123.96 479.211 123.032C482.333 122.104 485.281 120.77 488.056 119.029C490.83 117.289 493.374 115.201 495.686 112.765C497.998 110.212 499.906 107.254 501.408 103.89L503.316 105.63C500.657 111.083 497.593 115.549 494.125 119.029C490.772 122.51 487.131 125.236 483.2 127.208C479.269 129.065 475.281 130.341 471.234 131.037C467.188 131.849 463.2 132.255 459.269 132.255C452.101 132.255 445.742 131.037 440.193 128.6C434.644 126.164 429.904 122.858 425.973 118.681C422.158 114.389 419.21 109.574 417.129 104.238C415.164 98.7851 414.181 93.1585 414.181 87.3578C414.181 80.049 415.337 73.4943 417.649 67.6936C420.077 61.893 423.372 56.9624 427.534 52.902C431.812 48.7255 436.841 45.5351 442.621 43.3309C448.402 41.1266 454.76 40.0245 461.697 40.0245Z" fill="white"/>
<path d="M523.526 129.645V127.904L532.89 125.642V48.2034H522.832V46.2892L557.168 40.0245V67.3456L558.555 68.7377C560.174 64.9093 561.735 61.4869 563.237 58.4706C564.856 55.3382 566.475 52.786 568.093 50.8137C570.868 47.1013 573.874 44.375 577.111 42.6348C580.463 40.8946 584.163 40.0245 588.209 40.0245C590.984 40.0245 593.643 40.6046 596.186 41.7647C598.73 42.8088 600.811 44.491 602.429 46.8113C604.048 49.0155 604.857 51.8578 604.857 55.3382C604.857 58.0065 604.163 60.4428 602.776 62.6471C601.389 64.8513 599.481 66.5915 597.053 67.8676C594.625 69.1438 591.677 69.7819 588.209 69.7819C585.203 69.7819 582.486 69.2598 580.059 68.2157C577.631 67.0556 575.723 65.5474 574.336 63.6912C573.064 61.719 572.428 59.5147 572.428 57.0784C572.428 56.1503 572.486 55.3382 572.602 54.6422C572.833 53.8301 573.006 53.076 573.122 52.3799C573.353 51.6838 573.469 51.0458 573.469 50.4657C573.469 49.6536 573.18 49.2476 572.602 49.2476C571.561 49.2476 570.29 50.2337 568.787 52.2059C567.399 54.1781 565.723 57.1944 563.758 61.2549C562.717 63.5752 561.619 66.2435 560.463 69.2598C559.307 72.2762 558.208 75.4665 557.168 78.8309V125.642L566.706 127.904V129.645H523.526Z" fill="white"/>
<path d="M725.15 127.904V129.645H681.623V127.904L690.813 126.164V67.1716C690.813 61.0229 689.773 56.3824 687.692 53.25C685.611 50.1177 682.605 48.5515 678.674 48.5515C676.015 48.5515 673.299 49.5956 670.524 51.6838C667.865 53.656 665.264 56.2663 662.72 59.5147C660.293 62.6471 658.096 65.8954 656.131 69.2598C654.165 72.6242 652.605 75.6985 651.448 78.4828V126.164L660.639 127.904V129.645H617.806V127.904L627.17 126.164V48.2034H617.112V46.2892L651.448 40.0245V68.5637L652.836 69.7819C655.726 63.8652 658.963 58.7026 662.547 54.2941C666.247 49.7696 670.351 46.2892 674.859 43.8529C679.368 41.3007 684.339 40.0245 689.773 40.0245C694.513 40.0245 698.502 40.7786 701.739 42.2868C704.976 43.6789 707.519 45.7672 709.369 48.5515C711.334 51.2198 712.779 54.4681 713.704 58.2966C714.629 62.009 715.092 66.1275 715.092 70.652V126.164L725.15 127.904Z" fill="white"/>
<path d="M809.452 129.645V127.904L819.51 125.294V10.7892L809.452 8.17893V6.43874H910.032L904.136 51.3358H901.882L893.731 22.7966C892.344 18.156 890.205 14.7337 887.315 12.5294C884.425 10.2092 881.245 9.04903 877.777 9.04903H845.002V65.7794H860.956C862.806 65.7794 864.482 65.3154 865.985 64.3873C867.604 63.4591 869.049 62.241 870.32 60.7328C872.286 58.6446 873.846 55.9183 875.003 52.5539C876.159 49.1895 876.91 45.7092 877.257 42.1127H878.991V86.1397H877.257L862.343 67.8676H845.002V127.034H879.164C883.095 127.034 886.621 125.584 889.743 122.684C892.864 119.667 895.234 115.375 896.853 109.806L901.882 83.3554H904.136L910.032 129.645H809.452Z" fill="white"/>
<path d="M965.616 126.164L974.98 127.904V129.645H931.973V127.904L941.338 126.164V8.17893H931.106V6.26471L965.616 0V126.164Z" fill="white"/>
<path d="M990.331 129.645V127.904L1000.56 126.164V46.1152H990.331V44.375L1000.56 42.6348C1000.33 38.4583 1000.27 34.2239 1000.39 29.9314C1000.62 25.6389 1001.08 21.9265 1001.78 18.7941C1002.93 14.5016 1004.84 11.0212 1007.5 8.35295C1010.16 5.56863 1013.68 3.4804 1018.08 2.08824C1022.59 0.69608 1027.9 0 1034.03 0C1038.42 0 1042.47 0.406047 1046.17 1.21814C1049.87 2.03024 1053.11 3.19037 1055.88 4.69853C1058.77 6.2067 1060.97 8.12092 1062.47 10.4412C1064.09 12.6454 1064.9 15.1977 1064.9 18.098C1064.9 20.6503 1064.15 22.8546 1062.65 24.7108C1061.14 26.451 1059.12 27.7851 1056.58 28.7132C1054.03 29.5253 1051.14 29.9314 1047.9 29.9314C1043.05 29.9314 1038.94 28.9453 1035.59 26.973C1032.24 25.0008 1030.56 22.1005 1030.56 18.2721C1030.56 16.1838 1031.08 14.3856 1032.12 12.8775C1033.16 11.3693 1034.38 10.0931 1035.77 9.04903C1037.15 8.00491 1038.31 7.0188 1039.23 6.09069C1040.27 5.16258 1040.79 4.23448 1040.79 3.30638C1040.79 2.72632 1040.33 2.32027 1039.41 2.08824C1038.48 1.85622 1036.81 1.7402 1034.38 1.7402C1029.75 1.7402 1026.46 2.90033 1024.49 5.22059C1022.53 7.54085 1021.55 10.9632 1021.55 15.4878C1021.55 17.46 1021.66 19.9542 1021.89 22.9706C1022.24 25.9869 1022.64 29.1773 1023.11 32.5417C1023.68 35.906 1024.26 39.2704 1024.84 42.6348L1043.74 43.3309V45.5931H1024.84V126.164L1035.77 127.904V129.645H990.331Z" fill="white"/>
<path d="M330.679 200.34V197.991L349.928 178.805C351.749 176.978 353.115 175.39 354.025 174.041C354.936 172.649 355.543 171.366 355.846 170.191C356.193 169.017 356.366 167.864 356.366 166.733C356.366 163.861 355.391 161.599 353.44 159.946C351.489 158.249 348.628 157.401 344.856 157.401C341.995 157.401 339.48 157.836 337.312 158.706C335.188 159.576 333.346 160.903 331.785 162.687L329.444 160.598C331.178 158.597 333.367 157.053 336.012 155.965C338.7 154.877 341.735 154.334 345.116 154.334C348.108 154.334 350.687 154.834 352.855 155.835C355.066 156.792 356.757 158.184 357.927 160.011C359.141 161.795 359.748 163.926 359.748 166.406C359.748 167.885 359.531 169.343 359.098 170.778C358.708 172.171 357.97 173.65 356.887 175.216C355.846 176.782 354.329 178.566 352.335 180.567L334.256 198.643L333.151 197.338H361.959V200.34H330.679Z" fill="white"/>
<path d="M374.541 200.34V154.66H392.554C397.367 154.66 401.593 155.639 405.235 157.596C408.877 159.554 411.695 162.252 413.689 165.688C415.727 169.125 416.746 173.063 416.746 177.5C416.746 181.938 415.727 185.875 413.689 189.312C411.695 192.748 408.877 195.446 405.235 197.403C401.593 199.361 397.367 200.34 392.554 200.34H374.541ZM377.857 197.338H392.294C396.586 197.338 400.315 196.49 403.479 194.793C406.644 193.097 409.094 190.769 410.828 187.811C412.562 184.809 413.429 181.372 413.429 177.5C413.429 173.628 412.562 170.213 410.828 167.255C409.094 164.253 406.644 161.903 403.479 160.207C400.315 158.51 396.586 157.662 392.294 157.662H377.857V197.338Z" fill="white"/>
<path d="M441.263 200.34L462.202 154.66H465.519L486.459 200.34H482.882L463.113 156.748H464.543L444.839 200.34H441.263ZM448.936 187.484L450.042 184.678H477.289L478.395 187.484H448.936Z" fill="white"/>
<path d="M495.633 200.34V166.276H498.754V175.608L498.429 174.563C499.383 171.823 500.987 169.713 503.242 168.233C505.496 166.754 508.314 166.015 511.695 166.015V169.212C511.565 169.212 511.435 169.212 511.305 169.212C511.175 169.169 511.045 169.147 510.915 169.147C507.143 169.147 504.195 170.343 502.071 172.736C499.947 175.085 498.885 178.37 498.885 182.59V200.34H495.633Z" fill="white"/>
<path d="M534.014 200.601C531.023 200.601 528.725 199.775 527.121 198.121C525.56 196.468 524.78 194.206 524.78 191.335V158.836H528.031V191.008C528.031 193.184 528.573 194.858 529.657 196.033C530.741 197.208 532.302 197.795 534.339 197.795C536.464 197.795 538.219 197.164 539.607 195.903L540.972 198.187C540.105 199.013 539.043 199.622 537.786 200.014C536.572 200.405 535.315 200.601 534.014 200.601ZM518.537 169.082V166.276H538.826V169.082H518.537Z" fill="white"/>
<path d="M551.991 200.34V166.276H555.242V200.34H551.991ZM553.617 157.988C552.88 157.988 552.251 157.727 551.731 157.205C551.211 156.683 550.95 156.074 550.95 155.378C550.95 154.638 551.211 154.007 551.731 153.485C552.251 152.963 552.88 152.702 553.617 152.702C554.397 152.702 555.026 152.963 555.503 153.485C556.023 153.964 556.283 154.573 556.283 155.312C556.283 156.052 556.023 156.683 555.503 157.205C555.026 157.727 554.397 157.988 553.617 157.988Z" fill="white"/>
<path d="M579.482 200.601C576.664 200.601 574.019 200.188 571.548 199.361C569.121 198.535 567.235 197.491 565.891 196.229L567.386 193.619C568.687 194.75 570.421 195.729 572.589 196.555C574.756 197.338 577.098 197.73 579.612 197.73C583.167 197.73 585.725 197.142 587.286 195.968C588.846 194.793 589.627 193.249 589.627 191.335C589.627 189.942 589.215 188.855 588.391 188.072C587.611 187.245 586.549 186.614 585.205 186.179C583.861 185.744 582.387 185.396 580.783 185.135C579.179 184.831 577.574 184.504 575.97 184.156C574.366 183.808 572.892 183.308 571.548 182.655C570.204 182.003 569.121 181.111 568.297 179.98C567.516 178.805 567.126 177.261 567.126 175.347C567.126 173.606 567.603 172.04 568.557 170.648C569.511 169.256 570.941 168.146 572.849 167.32C574.756 166.45 577.141 166.015 580.002 166.015C582.127 166.015 584.251 166.319 586.375 166.928C588.543 167.537 590.299 168.342 591.643 169.343L590.147 171.953C588.716 170.865 587.112 170.082 585.335 169.604C583.557 169.125 581.758 168.886 579.937 168.886C576.642 168.886 574.215 169.495 572.654 170.713C571.136 171.931 570.378 173.454 570.378 175.281C570.378 176.717 570.768 177.87 571.548 178.74C572.372 179.566 573.456 180.219 574.8 180.698C576.144 181.133 577.618 181.502 579.222 181.807C580.826 182.068 582.43 182.373 584.034 182.721C585.638 183.069 587.112 183.569 588.456 184.222C589.8 184.831 590.862 185.701 591.643 186.832C592.466 187.919 592.878 189.399 592.878 191.269C592.878 193.14 592.358 194.771 591.318 196.164C590.32 197.556 588.825 198.643 586.83 199.426C584.836 200.21 582.387 200.601 579.482 200.601Z" fill="white"/>
<path d="M613.788 200.601C610.797 200.601 608.499 199.775 606.895 198.121C605.334 196.468 604.554 194.206 604.554 191.335V158.836H607.805V191.008C607.805 193.184 608.347 194.858 609.431 196.033C610.515 197.208 612.076 197.795 614.113 197.795C616.238 197.795 617.993 197.164 619.381 195.903L620.746 198.187C619.879 199.013 618.817 199.622 617.56 200.014C616.346 200.405 615.089 200.601 613.788 200.601ZM598.311 169.082V166.276H618.6V169.082H598.311Z" fill="white"/>
<path d="M661.733 200.666C658.872 200.666 656.314 200.188 654.06 199.231C651.849 198.274 650.093 196.947 648.792 195.25C647.535 193.51 646.906 191.509 646.906 189.246C646.906 187.376 647.318 185.657 648.142 184.091C648.966 182.481 650.31 180.893 652.174 179.327C654.081 177.718 656.618 176.021 659.782 174.237C662.557 172.627 664.746 171.235 666.35 170.061C667.954 168.886 669.082 167.755 669.732 166.667C670.382 165.58 670.707 164.405 670.707 163.143C670.707 161.273 670.079 159.772 668.822 158.641C667.608 157.509 665.852 156.944 663.554 156.944C661.126 156.944 659.219 157.575 657.831 158.836C656.487 160.055 655.815 161.686 655.815 163.731C655.815 164.688 655.967 165.601 656.271 166.471C656.574 167.342 657.116 168.32 657.896 169.408C658.72 170.452 659.847 171.757 661.278 173.324L685.404 198.839L683.453 200.993L658.612 174.759C657.094 173.15 655.902 171.736 655.035 170.517C654.168 169.299 653.561 168.168 653.214 167.124C652.911 166.036 652.759 164.905 652.759 163.731C652.759 161.86 653.193 160.229 654.06 158.836C654.97 157.444 656.227 156.357 657.831 155.574C659.479 154.79 661.386 154.399 663.554 154.399C665.592 154.399 667.348 154.747 668.822 155.443C670.339 156.139 671.509 157.14 672.333 158.445C673.157 159.706 673.569 161.251 673.569 163.078C673.569 164.688 673.179 166.189 672.398 167.581C671.661 168.93 670.404 170.3 668.626 171.692C666.849 173.041 664.421 174.585 661.343 176.325C658.482 177.979 656.227 179.479 654.58 180.828C652.932 182.177 651.762 183.504 651.068 184.809C650.418 186.07 650.093 187.463 650.093 188.985C650.093 190.769 650.591 192.335 651.589 193.684C652.586 195.032 653.951 196.077 655.685 196.816C657.463 197.556 659.522 197.926 661.863 197.926C664.985 197.926 667.759 197.295 670.187 196.033C672.615 194.728 674.653 192.77 676.3 190.16C677.947 187.55 679.14 184.265 679.877 180.306L682.543 181.154C681.719 185.461 680.354 189.072 678.446 191.987C676.538 194.858 674.176 197.034 671.358 198.513C668.54 199.949 665.332 200.666 661.733 200.666Z" fill="white"/>
<path d="M733.924 200.666C730.542 200.666 727.399 200.101 724.495 198.97C721.633 197.795 719.141 196.164 717.016 194.075C714.892 191.987 713.244 189.551 712.074 186.767C710.903 183.939 710.318 180.85 710.318 177.5C710.318 174.15 710.903 171.083 712.074 168.299C713.244 165.471 714.892 163.013 717.016 160.925C719.184 158.836 721.698 157.227 724.56 156.096C727.421 154.921 730.542 154.334 733.924 154.334C737.132 154.334 740.124 154.856 742.898 155.9C745.716 156.944 748.122 158.532 750.117 160.664L748.036 162.817C746.085 160.903 743.917 159.532 741.533 158.706C739.192 157.836 736.699 157.401 734.054 157.401C731.149 157.401 728.44 157.901 725.925 158.902C723.454 159.902 721.287 161.316 719.422 163.143C717.601 164.971 716.171 167.102 715.13 169.539C714.133 171.975 713.635 174.629 713.635 177.5C713.635 180.371 714.133 183.025 715.13 185.461C716.171 187.898 717.601 190.029 719.422 191.857C721.287 193.684 723.454 195.098 725.925 196.098C728.44 197.099 731.149 197.599 734.054 197.599C736.699 197.599 739.192 197.186 741.533 196.359C743.917 195.489 746.085 194.075 748.036 192.118L750.117 194.271C748.122 196.403 745.716 198.013 742.898 199.1C740.124 200.144 737.132 200.666 733.924 200.666Z" fill="white"/>
<path d="M773.814 200.601C770.563 200.601 767.658 199.862 765.1 198.382C762.586 196.903 760.57 194.858 759.052 192.248C757.578 189.638 756.841 186.658 756.841 183.308C756.841 179.915 757.578 176.934 759.052 174.368C760.57 171.757 762.586 169.713 765.1 168.233C767.658 166.754 770.563 166.015 773.814 166.015C777.066 166.015 779.97 166.754 782.528 168.233C785.086 169.713 787.102 171.757 788.576 174.368C790.05 176.934 790.787 179.915 790.787 183.308C790.787 186.658 790.05 189.638 788.576 192.248C787.102 194.858 785.086 196.903 782.528 198.382C779.97 199.862 777.066 200.601 773.814 200.601ZM773.814 197.665C776.415 197.665 778.756 197.077 780.837 195.903C782.918 194.684 784.544 192.988 785.715 190.812C786.885 188.637 787.47 186.136 787.47 183.308C787.47 180.437 786.885 177.935 785.715 175.803C784.544 173.628 782.918 171.953 780.837 170.778C778.756 169.56 776.415 168.951 773.814 168.951C771.213 168.951 768.872 169.56 766.791 170.778C764.753 171.953 763.127 173.628 761.914 175.803C760.743 177.935 760.158 180.437 760.158 183.308C760.158 186.136 760.743 188.637 761.914 190.812C763.127 192.988 764.753 194.684 766.791 195.903C768.872 197.077 771.213 197.665 773.814 197.665Z" fill="white"/>
<path d="M819.408 166.015C822.183 166.015 824.589 166.559 826.626 167.646C828.707 168.69 830.311 170.3 831.439 172.475C832.609 174.607 833.194 177.261 833.194 180.437V200.34H829.943V180.698C829.943 176.869 828.967 173.954 827.017 171.953C825.109 169.952 822.421 168.951 818.953 168.951C816.308 168.951 814.011 169.495 812.06 170.583C810.109 171.67 808.613 173.193 807.573 175.151C806.575 177.108 806.077 179.458 806.077 182.199V200.34H802.825V166.276H805.947V175.738L805.492 174.694C806.532 171.997 808.244 169.887 810.629 168.364C813.013 166.798 815.94 166.015 819.408 166.015Z" fill="white"/>
<path d="M861.993 200.601C858.698 200.601 855.75 199.862 853.149 198.382C850.591 196.903 848.554 194.858 847.036 192.248C845.562 189.638 844.825 186.658 844.825 183.308C844.825 179.915 845.562 176.913 847.036 174.302C848.554 171.692 850.591 169.669 853.149 168.233C855.75 166.754 858.698 166.015 861.993 166.015C864.725 166.015 867.196 166.537 869.407 167.581C871.661 168.625 873.482 170.191 874.869 172.279L872.463 174.041C871.249 172.301 869.732 171.018 867.911 170.191C866.09 169.365 864.118 168.951 861.993 168.951C859.349 168.951 856.964 169.56 854.84 170.778C852.759 171.953 851.111 173.628 849.898 175.803C848.727 177.935 848.142 180.437 848.142 183.308C848.142 186.179 848.727 188.703 849.898 190.878C851.111 193.009 852.759 194.684 854.84 195.903C856.964 197.077 859.349 197.665 861.993 197.665C864.118 197.665 866.09 197.251 867.911 196.425C869.732 195.598 871.249 194.315 872.463 192.574L874.869 194.336C873.482 196.425 871.661 197.991 869.407 199.035C867.196 200.079 864.725 200.601 861.993 200.601Z" fill="white"/>
<path d="M899.769 200.601C896.344 200.601 893.31 199.862 890.665 198.382C888.064 196.903 886.004 194.858 884.487 192.248C883.013 189.638 882.276 186.658 882.276 183.308C882.276 179.915 882.97 176.934 884.357 174.368C885.788 171.757 887.739 169.713 890.21 168.233C892.681 166.754 895.456 166.015 898.534 166.015C901.612 166.015 904.365 166.733 906.793 168.168C909.264 169.604 911.193 171.627 912.58 174.237C914.011 176.804 914.726 179.784 914.726 183.177C914.726 183.308 914.705 183.46 914.661 183.634C914.661 183.765 914.661 183.917 914.661 184.091H884.682V181.546H912.905L911.605 182.786C911.648 180.132 911.085 177.761 909.914 175.673C908.787 173.541 907.248 171.888 905.297 170.713C903.346 169.495 901.092 168.886 898.534 168.886C896.019 168.886 893.765 169.495 891.771 170.713C889.82 171.888 888.281 173.541 887.153 175.673C886.026 177.761 885.463 180.154 885.463 182.851V183.438C885.463 186.223 886.07 188.703 887.283 190.878C888.541 193.009 890.253 194.684 892.421 195.903C894.589 197.077 897.06 197.665 899.834 197.665C902.002 197.665 904.018 197.273 905.882 196.49C907.79 195.707 909.394 194.51 910.694 192.901L912.58 195.054C911.106 196.881 909.242 198.274 906.988 199.231C904.777 200.144 902.371 200.601 899.769 200.601Z" fill="white"/>
<path d="M943.774 200.601C940.783 200.601 938.073 199.905 935.645 198.513C933.261 197.121 931.353 195.141 929.922 192.574C928.535 189.964 927.842 186.875 927.842 183.308C927.842 179.74 928.535 176.673 929.922 174.107C931.353 171.496 933.261 169.495 935.645 168.103C938.073 166.711 940.783 166.015 943.774 166.015C946.982 166.015 949.844 166.754 952.358 168.233C954.916 169.669 956.91 171.692 958.341 174.302C959.815 176.913 960.552 179.915 960.552 183.308C960.552 186.701 959.815 189.703 958.341 192.313C956.91 194.924 954.916 196.968 952.358 198.448C949.844 199.883 946.982 200.601 943.774 200.601ZM926.736 213V166.276H929.858V177.435L929.337 183.373L929.988 189.312V213H926.736ZM943.579 197.665C946.18 197.665 948.521 197.077 950.602 195.903C952.683 194.684 954.309 192.988 955.479 190.812C956.693 188.637 957.3 186.136 957.3 183.308C957.3 180.437 956.693 177.935 955.479 175.803C954.309 173.628 952.683 171.953 950.602 170.778C948.521 169.56 946.18 168.951 943.579 168.951C940.978 168.951 938.637 169.56 936.556 170.778C934.518 171.953 932.892 173.628 931.678 175.803C930.508 177.935 929.922 180.437 929.922 183.308C929.922 186.136 930.508 188.637 931.678 190.812C932.892 192.988 934.518 194.684 936.556 195.903C938.637 197.077 940.978 197.665 943.579 197.665Z" fill="white"/>
<path d="M982.454 200.601C979.463 200.601 977.165 199.775 975.561 198.121C974 196.468 973.22 194.206 973.22 191.335V158.836H976.472V191.008C976.472 193.184 977.014 194.858 978.097 196.033C979.181 197.208 980.742 197.795 982.78 197.795C984.904 197.795 986.66 197.164 988.047 195.903L989.413 198.187C988.546 199.013 987.483 199.622 986.226 200.014C985.012 200.405 983.755 200.601 982.454 200.601ZM966.977 169.082V166.276H987.267V169.082H966.977Z" fill="white"/>
<path d="M1012.52 200.34L1033.46 154.66H1036.77L1057.71 200.34H1054.14L1034.37 156.748H1035.8L1016.09 200.34H1012.52ZM1020.19 187.484L1021.3 184.678H1048.54L1049.65 187.484H1020.19Z" fill="white"/>
<path d="M1066.89 200.34V166.276H1070.01V175.608L1069.68 174.563C1070.64 171.823 1072.24 169.713 1074.5 168.233C1076.75 166.754 1079.57 166.015 1082.95 166.015V169.212C1082.82 169.212 1082.69 169.212 1082.56 169.212C1082.43 169.169 1082.3 169.147 1082.17 169.147C1078.4 169.147 1075.45 170.343 1073.32 172.736C1071.2 175.085 1070.14 178.37 1070.14 182.59V200.34H1066.89Z" fill="white"/>
<path d="M1105.27 200.601C1102.28 200.601 1099.98 199.775 1098.37 198.121C1096.81 196.468 1096.03 194.206 1096.03 191.335V158.836H1099.29V191.008C1099.29 193.184 1099.83 194.858 1100.91 196.033C1101.99 197.208 1103.56 197.795 1105.59 197.795C1107.72 197.795 1109.47 197.164 1110.86 195.903L1112.23 198.187C1111.36 199.013 1110.3 199.622 1109.04 200.014C1107.83 200.405 1106.57 200.601 1105.27 200.601ZM1089.79 169.082V166.276H1110.08V169.082H1089.79Z" fill="white"/>
<path d="M1123.24 200.34V166.276H1126.5V200.34H1123.24ZM1124.87 157.988C1124.13 157.988 1123.5 157.727 1122.98 157.205C1122.46 156.683 1122.2 156.074 1122.2 155.378C1122.2 154.638 1122.46 154.007 1122.98 153.485C1123.5 152.963 1124.13 152.702 1124.87 152.702C1125.65 152.702 1126.28 152.963 1126.76 153.485C1127.28 153.964 1127.54 154.573 1127.54 155.312C1127.54 156.052 1127.28 156.683 1126.76 157.205C1126.28 157.727 1125.65 157.988 1124.87 157.988Z" fill="white"/>
<path d="M1150.74 200.601C1147.92 200.601 1145.27 200.188 1142.8 199.361C1140.37 198.535 1138.49 197.491 1137.14 196.229L1138.64 193.619C1139.94 194.75 1141.67 195.729 1143.84 196.555C1146.01 197.338 1148.35 197.73 1150.87 197.73C1154.42 197.73 1156.98 197.142 1158.54 195.968C1160.1 194.793 1160.88 193.249 1160.88 191.335C1160.88 189.942 1160.47 188.855 1159.64 188.072C1158.86 187.245 1157.8 186.614 1156.46 186.179C1155.11 185.744 1153.64 185.396 1152.04 185.135C1150.43 184.831 1148.83 184.504 1147.22 184.156C1145.62 183.808 1144.15 183.308 1142.8 182.655C1141.46 182.003 1140.37 181.111 1139.55 179.98C1138.77 178.805 1138.38 177.261 1138.38 175.347C1138.38 173.606 1138.86 172.04 1139.81 170.648C1140.76 169.256 1142.19 168.146 1144.1 167.32C1146.01 166.45 1148.39 166.015 1151.26 166.015C1153.38 166.015 1155.5 166.319 1157.63 166.928C1159.8 167.537 1161.55 168.342 1162.9 169.343L1161.4 171.953C1159.97 170.865 1158.37 170.082 1156.59 169.604C1154.81 169.125 1153.01 168.886 1151.19 168.886C1147.9 168.886 1145.47 169.495 1143.91 170.713C1142.39 171.931 1141.63 173.454 1141.63 175.281C1141.63 176.717 1142.02 177.87 1142.8 178.74C1143.63 179.566 1144.71 180.219 1146.05 180.698C1147.4 181.133 1148.87 181.502 1150.48 181.807C1152.08 182.068 1153.68 182.373 1155.29 182.721C1156.89 183.069 1158.37 183.569 1159.71 184.222C1161.05 184.831 1162.12 185.701 1162.9 186.832C1163.72 187.919 1164.13 189.399 1164.13 191.269C1164.13 193.14 1163.61 194.771 1162.57 196.164C1161.57 197.556 1160.08 198.643 1158.08 199.426C1156.09 200.21 1153.64 200.601 1150.74 200.601Z" fill="white"/>
<path d="M1185.04 200.601C1182.05 200.601 1179.75 199.775 1178.15 198.121C1176.59 196.468 1175.81 194.206 1175.81 191.335V158.836H1179.06V191.008C1179.06 193.184 1179.6 194.858 1180.68 196.033C1181.77 197.208 1183.33 197.795 1185.37 197.795C1187.49 197.795 1189.25 197.164 1190.63 195.903L1192 198.187C1191.13 199.013 1190.07 199.622 1188.81 200.014C1187.6 200.405 1186.34 200.601 1185.04 200.601ZM1169.56 169.082V166.276H1189.85V169.082H1169.56Z" fill="white"/>
</svg>
